# xmcd CD database file
#
# Track frame offsets:
#	150
#	14310
#	28110
#	46665
#	61515
#	76560
#	96285
#	110310
#	120225
#	138435
#	150780
#	169230
#
# Disc length: 2614 seconds
#
# Revision: 0
# Processed by: cddbd v1.5.1PL2 Copyright (c) Steve Scherf et al.
# Submitted via: CDex 1.51
#
DISCID=790a340c
DTITLE=The Staton Brothers Band - The Staton Brothers Band
DYEAR=1972
DGENRE=Country
TTITLE0=S.F. To L.A.
TTITLE1=Take It Back
TTITLE2=April
TTITLE3=No One Listens
TTITLE4=I Need To Be Alone
TTITLE5=Four Days Gone
TTITLE6=Mobile Blues
TTITLE7=One Man Woman
TTITLE8=Mother Nature's Son
TTITLE9=Ooh, Did I Miss Her
TTITLE10=Night In The City
TTITLE11=Bridge Of Your Faith
EXTD=YEAR: 1972
EXTT0=
EXTT1=
EXTT2=
EXTT3=
EXTT4=
EXTT5=
EXTT6=
EXTT7=
EXTT8=
EXTT9=
EXTT10=
EXTT11=
PLAYORDER=
